<svg width="22" height="21" viewBox="0 0 22 21" fill="none" xmlns="http://www.w3.org/2000/svg">
<path d="M16 10C17.4587 10 18.8576 10.5795 19.8891 11.6109C20.9205 12.6424 21.5 14.0413 21.5 15.5C21.5 16.9587 20.9205 18.3576 19.8891 19.3891C18.8576 20.4205 17.4587 21 16 21C14.5413 21 13.1424 20.4205 12.1109 19.3891C11.0795 18.3576 10.5 16.9587 10.5 15.5C10.5 14.0413 11.0795 12.6424 12.1109 11.6109C13.1424 10.5795 14.5413 10 16 10ZM10.523 12C10.2233 12.4675 9.98498 12.9716 9.814 13.5H2.753C2.65447 13.4999 2.55688 13.5192 2.46583 13.5568C2.37478 13.5945 2.29204 13.6497 2.22237 13.7194C2.1527 13.7891 2.09746 13.8718 2.05982 13.9628C2.02218 14.0539 2.00287 14.1515 2.003 14.25V14.827C2.003 15.362 2.195 15.88 2.543 16.287C3.796 17.756 5.763 18.501 8.5 18.501C9.097 18.501 9.657 18.466 10.18 18.395C10.426 18.89 10.733 19.349 11.092 19.762C10.297 19.922 9.432 20.002 8.5 20.002C5.354 20.002 2.968 19.096 1.402 17.262C0.822383 16.5831 0.503967 15.7197 0.503998 14.827V14.249C0.503998 13.6525 0.740945 13.0805 1.16271 12.6587C1.58448 12.237 2.15653 12 2.753 12H10.523ZM16 12L15.91 12.008C15.8101 12.0263 15.7181 12.0745 15.6463 12.1463C15.5745 12.2181 15.5262 12.3101 15.508 12.41L15.5 12.5V15H13.004L12.914 15.008C12.8141 15.0263 12.7221 15.0745 12.6503 15.1463C12.5785 15.2181 12.5302 15.3101 12.512 15.41L12.504 15.5L12.512 15.59C12.5302 15.6899 12.5785 15.7819 12.6503 15.8537C12.7221 15.9255 12.8141 15.9738 12.914 15.992L13.004 16H15.5V18.5L15.508 18.59C15.5262 18.6899 15.5745 18.7819 15.6463 18.8537C15.7181 18.9255 15.8101 18.9738 15.91 18.992L16 19L16.09 18.992C16.1899 18.9738 16.2819 18.9255 16.3537 18.8537C16.4255 18.7819 16.4737 18.6899 16.492 18.59L16.5 18.5V16H19.004L19.094 15.992C19.1939 15.9738 19.2859 15.9255 19.3577 15.8537C19.4295 15.7819 19.4777 15.6899 19.496 15.59L19.504 15.5L19.496 15.41C19.4777 15.3101 19.4295 15.2181 19.3577 15.1463C19.2859 15.0745 19.1939 15.0263 19.094 15.008L19.004 15H16.5V12.5L16.492 12.41C16.4737 12.3101 16.4255 12.2181 16.3537 12.1463C16.2819 12.0745 16.1899 12.0263 16.09 12.008L16 12ZM8.5 0.00500488C9.15661 0.00500487 9.80679 0.134333 10.4134 0.385607C11.02 0.636881 11.5712 1.00518 12.0355 1.46947C12.4998 1.93376 12.8681 2.48496 13.1194 3.09159C13.3707 3.69822 13.5 4.3484 13.5 5.005C13.5 5.66161 13.3707 6.31179 13.1194 6.91842C12.8681 7.52505 12.4998 8.07625 12.0355 8.54054C11.5712 9.00483 11.02 9.37313 10.4134 9.6244C9.80679 9.87568 9.15661 10.005 8.5 10.005C7.17392 10.005 5.90215 9.47822 4.96446 8.54054C4.02678 7.60286 3.5 6.33109 3.5 5.005C3.5 3.67892 4.02678 2.40715 4.96446 1.46947C5.90215 0.531789 7.17392 0.00500488 8.5 0.00500488ZM8.5 1.505C8.04037 1.505 7.58525 1.59554 7.16061 1.77143C6.73597 1.94732 6.35013 2.20513 6.02512 2.53013C5.70012 2.85514 5.44231 3.24097 5.26642 3.66561C5.09053 4.09025 5 4.54538 5 5.005C5 5.46463 5.09053 5.91976 5.26642 6.3444C5.44231 6.76904 5.70012 7.15487 6.02512 7.47988C6.35013 7.80488 6.73597 8.06269 7.16061 8.23858C7.58525 8.41448 8.04037 8.505 8.5 8.505C9.42826 8.505 10.3185 8.13626 10.9749 7.47988C11.6312 6.8235 12 5.93326 12 5.005C12 4.07675 11.6312 3.18651 10.9749 2.53013C10.3185 1.87375 9.42826 1.505 8.5 1.505Z" fill="#EBF2FA"/>
</svg>
