<svg width="200" height="24" viewBox="0 0 200 24" fill="none" xmlns="http://www.w3.org/2000/svg">
<rect width="24" height="24" rx="12" fill="#0080FF"/>
<path d="M7.02006 12.6467C6.92528 12.5583 6.79991 12.5103 6.67038 12.5125C6.54084 12.5148 6.41725 12.5673 6.32565 12.6589C6.23404 12.7505 6.18156 12.8741 6.17928 13.0037C6.17699 13.1332 6.22507 13.2585 6.31339 13.3533L9.31339 16.3533C9.40714 16.447 9.53423 16.4996 9.66673 16.4996C9.79923 16.4996 9.92631 16.447 10.0201 16.3533L17.3534 9.02C17.4417 8.92522 17.4898 8.79985 17.4875 8.67032C17.4852 8.54078 17.4328 8.41719 17.3411 8.32558C17.2495 8.23398 17.1259 8.1815 16.9964 8.17922C16.8669 8.17693 16.7415 8.22501 16.6467 8.31333L9.66673 15.2933L7.02006 12.6467V12.6467Z" fill="white" stroke="white"/>
<path d="M88 12H24" stroke="#0080FF"/>
<rect x="88" width="24" height="24" rx="12" fill="#0080FF"/>
<path d="M95.0201 12.6467C94.9253 12.5583 94.7999 12.5103 94.6704 12.5125C94.5408 12.5148 94.4173 12.5673 94.3256 12.6589C94.234 12.7505 94.1816 12.8741 94.1793 13.0037C94.177 13.1332 94.2251 13.2585 94.3134 13.3533L97.3134 16.3533C97.4071 16.447 97.5342 16.4996 97.6667 16.4996C97.7992 16.4996 97.9263 16.447 98.0201 16.3533L105.353 9.02C105.442 8.92522 105.49 8.79985 105.488 8.67032C105.485 8.54078 105.433 8.41719 105.341 8.32558C105.25 8.23398 105.126 8.1815 104.996 8.17922C104.867 8.17693 104.742 8.22501 104.647 8.31333L97.6667 15.2933L95.0201 12.6467V12.6467Z" fill="white" stroke="white"/>
<path d="M176 12H112" stroke="#0080FF"/>
<rect x="176" width="24" height="24" rx="12" fill="#0080FF"/>
<path d="M187.559 17.6392C186.843 17.6392 186.207 17.5166 185.65 17.2713C185.096 17.026 184.659 16.6847 184.337 16.2472C184.016 15.8097 183.845 15.3042 183.825 14.7308H185.695C185.711 15.0059 185.802 15.2462 185.968 15.4517C186.134 15.6539 186.354 15.8113 186.629 15.924C186.904 16.0367 187.213 16.093 187.554 16.093C187.919 16.093 188.242 16.0301 188.523 15.9041C188.805 15.7749 189.026 15.5959 189.185 15.3672C189.344 15.1385 189.422 14.875 189.418 14.5767C189.422 14.2685 189.342 13.9967 189.18 13.7614C189.017 13.526 188.782 13.3421 188.474 13.2095C188.169 13.0769 187.801 13.0107 187.37 13.0107H186.47V11.5888H187.37C187.725 11.5888 188.035 11.5275 188.3 11.4048C188.568 11.2822 188.779 11.1098 188.931 10.8878C189.084 10.6624 189.158 10.4022 189.155 10.1072C189.158 9.81889 189.094 9.56866 188.961 9.35653C188.832 9.1411 188.648 8.97372 188.409 8.8544C188.174 8.73508 187.897 8.67543 187.579 8.67543C187.267 8.67543 186.979 8.73177 186.714 8.84446C186.449 8.95715 186.235 9.1179 186.072 9.3267C185.91 9.5322 185.824 9.77746 185.814 10.0625H184.039C184.052 9.49242 184.216 8.99195 184.531 8.56108C184.849 8.12689 185.274 7.78883 185.804 7.54688C186.334 7.30161 186.929 7.17898 187.589 7.17898C188.268 7.17898 188.858 7.30658 189.359 7.56179C189.862 7.81368 190.252 8.15341 190.527 8.58097C190.802 9.00852 190.94 9.48082 190.94 9.99787C190.943 10.5713 190.774 11.0518 190.433 11.4396C190.094 11.8274 189.65 12.081 189.1 12.2003V12.2798C189.816 12.3793 190.365 12.6444 190.746 13.0753C191.13 13.5028 191.321 14.0348 191.317 14.6712C191.317 15.2412 191.155 15.7517 190.83 16.2024C190.509 16.6499 190.065 17.0012 189.498 17.2564C188.934 17.5116 188.288 17.6392 187.559 17.6392Z" fill="white"/>
</svg>
