<svg width="240" height="240" viewBox="0 0 240 240" fill="none" xmlns="http://www.w3.org/2000/svg">
<circle cx="120" cy="120" r="120" fill="#F6EEF4"/>
<path d="M127.833 108C129.778 108 131.644 108.773 133.019 110.148C134.394 111.523 135.167 113.388 135.167 115.333C135.167 117.278 134.394 119.144 133.019 120.519C131.644 121.894 129.778 122.667 127.833 122.667C125.888 122.667 124.023 121.894 122.648 120.519C121.273 119.144 120.5 117.278 120.5 115.333C120.5 113.388 121.273 111.523 122.648 110.148C124.023 108.773 125.888 108 127.833 108V108ZM127.833 110.667L127.713 110.677C127.58 110.702 127.458 110.766 127.362 110.862C127.266 110.957 127.202 111.08 127.177 111.213L127.167 111.333V114.667H123.831L123.711 114.679C123.578 114.703 123.455 114.767 123.359 114.863C123.263 114.959 123.199 115.081 123.175 115.215L123.164 115.335L123.175 115.455C123.199 115.588 123.263 115.711 123.359 115.806C123.455 115.902 123.578 115.966 123.711 115.991L123.831 116.001H127.167V119.339L127.177 119.459C127.202 119.592 127.266 119.715 127.362 119.81C127.458 119.906 127.58 119.97 127.713 119.995L127.833 120.005L127.953 119.995C128.087 119.97 128.209 119.906 128.305 119.81C128.401 119.715 128.465 119.592 128.489 119.459L128.5 119.339V116H131.839L131.959 115.991C132.092 115.966 132.215 115.902 132.31 115.806C132.406 115.711 132.47 115.588 132.495 115.455L132.505 115.335L132.495 115.215C132.47 115.081 132.406 114.959 132.31 114.863C132.214 114.767 132.091 114.703 131.957 114.679L131.837 114.668H128.5V111.335L128.489 111.215C128.465 111.081 128.401 110.958 128.305 110.862C128.21 110.766 128.087 110.702 127.953 110.677L127.833 110.667ZM123.067 95.3387C123.589 95.3386 124.103 95.4752 124.557 95.7348C125.011 95.9944 125.389 96.368 125.653 96.8187L126.739 98.668H129.5C130.649 98.668 131.751 99.1244 132.564 99.9367C133.376 100.749 133.833 101.851 133.833 103V109.08C133.239 108.509 132.566 108.025 131.835 107.644L131.833 103C131.833 102.381 131.588 101.788 131.15 101.35C130.712 100.912 130.119 100.667 129.5 100.667H126.167C125.992 100.667 125.821 100.621 125.67 100.535C125.518 100.448 125.392 100.324 125.304 100.173L123.928 97.8307C123.84 97.6806 123.714 97.5561 123.563 97.4696C123.412 97.3831 123.241 97.3375 123.067 97.3373H117.996C117.85 97.3375 117.706 97.3695 117.574 97.4312C117.442 97.493 117.325 97.5829 117.231 97.6947L117.144 97.8147L115.687 100.189C115.597 100.335 115.472 100.456 115.323 100.539C115.174 100.623 115.006 100.667 114.835 100.667H111.501C111.195 100.666 110.891 100.727 110.608 100.844C110.325 100.961 110.067 101.133 109.851 101.35C109.634 101.566 109.462 101.824 109.344 102.107C109.227 102.39 109.167 102.693 109.167 103V115.667C109.167 116.955 110.212 118 111.5 118H119.584C119.815 118.711 120.133 119.383 120.529 120H111.5C110.351 120 109.249 119.543 108.436 118.731C107.623 117.918 107.167 116.816 107.167 115.667V103C107.167 101.851 107.623 100.749 108.436 99.9359C109.249 99.1232 110.351 98.6667 111.5 98.6667H114.273L115.44 96.768C115.708 96.331 116.084 95.97 116.532 95.7195C116.979 95.469 117.483 95.3375 117.996 95.3373H123.067V95.3387ZM120.5 102.667C121.769 102.667 123.004 103.068 124.03 103.814C125.056 104.56 125.82 105.612 126.211 106.819C125.544 106.945 124.904 107.148 124.3 107.417C124.005 106.512 123.396 105.742 122.583 105.245C121.77 104.749 120.807 104.559 119.866 104.71C118.926 104.86 118.07 105.342 117.453 106.067C116.836 106.792 116.498 107.714 116.5 108.667C116.5 110.573 117.833 112.167 119.617 112.569C119.404 113.203 119.265 113.859 119.204 114.525C117.764 114.203 116.493 113.36 115.635 112.16C114.776 110.959 114.391 109.484 114.551 108.017C114.711 106.55 115.407 105.193 116.504 104.207C117.602 103.22 119.024 102.672 120.5 102.668V102.667Z" fill="#0080FF"/>
<path d="M69.5242 133.273H70.8452V139.013C70.8452 139.624 70.7018 140.165 70.4148 140.636C70.1279 141.105 69.7245 141.474 69.2046 141.744C68.6847 142.011 68.0754 142.145 67.3765 142.145C66.6805 142.145 66.0725 142.011 65.5526 141.744C65.0327 141.474 64.6293 141.105 64.3424 140.636C64.0555 140.165 63.912 139.624 63.912 139.013V133.273H65.2288V138.906C65.2288 139.301 65.3154 139.652 65.4887 139.959C65.6648 140.266 65.9134 140.507 66.2345 140.683C66.5555 140.857 66.9362 140.943 67.3765 140.943C67.8197 140.943 68.2018 140.857 68.5228 140.683C68.8467 140.507 69.0938 140.266 69.2643 139.959C69.4376 139.652 69.5242 139.301 69.5242 138.906V133.273ZM72.7774 144.455V135.455H74.0217V136.516H74.1282C74.2021 136.379 74.3086 136.222 74.4478 136.043C74.5871 135.864 74.7802 135.707 75.0274 135.574C75.2746 135.438 75.6013 135.369 76.0075 135.369C76.5359 135.369 77.0075 135.503 77.4223 135.77C77.8371 136.037 78.1623 136.422 78.3981 136.925C78.6368 137.428 78.7561 138.033 78.7561 138.74C78.7561 139.447 78.6382 140.054 78.4024 140.56C78.1666 141.062 77.8427 141.45 77.4308 141.723C77.0189 141.993 76.5487 142.128 76.0203 142.128C75.6226 142.128 75.2973 142.061 75.0444 141.928C74.7944 141.794 74.5984 141.638 74.4564 141.459C74.3143 141.28 74.2049 141.121 74.1282 140.982H74.0515V144.455H72.7774ZM74.026 138.727C74.026 139.187 74.0927 139.591 74.2263 139.938C74.3598 140.284 74.553 140.555 74.8058 140.751C75.0586 140.945 75.3683 141.041 75.7348 141.041C76.1155 141.041 76.4336 140.94 76.6893 140.739C76.945 140.534 77.1382 140.257 77.2689 139.908C77.4024 139.558 77.4692 139.165 77.4692 138.727C77.4692 138.295 77.4038 137.908 77.2731 137.564C77.1453 137.22 76.9521 136.949 76.6936 136.75C76.4379 136.551 76.1183 136.452 75.7348 136.452C75.3655 136.452 75.053 136.547 74.7973 136.737C74.5444 136.928 74.3527 137.193 74.222 137.534C74.0913 137.875 74.026 138.273 74.026 138.727ZM81.5778 133.273V142H80.3036V133.273H81.5778ZM86.169 142.132C85.5554 142.132 85.0199 141.991 84.5625 141.71C84.1051 141.429 83.75 141.036 83.4972 140.53C83.2443 140.024 83.1179 139.433 83.1179 138.757C83.1179 138.078 83.2443 137.484 83.4972 136.976C83.75 136.467 84.1051 136.072 84.5625 135.791C85.0199 135.51 85.5554 135.369 86.169 135.369C86.7827 135.369 87.3182 135.51 87.7756 135.791C88.2329 136.072 88.5881 136.467 88.8409 136.976C89.0937 137.484 89.2202 138.078 89.2202 138.757C89.2202 139.433 89.0937 140.024 88.8409 140.53C88.5881 141.036 88.2329 141.429 87.7756 141.71C87.3182 141.991 86.7827 142.132 86.169 142.132ZM86.1733 141.062C86.571 141.062 86.9006 140.957 87.1619 140.747C87.4233 140.537 87.6165 140.257 87.7415 139.908C87.8693 139.558 87.9332 139.173 87.9332 138.753C87.9332 138.335 87.8693 137.952 87.7415 137.602C87.6165 137.25 87.4233 136.967 87.1619 136.754C86.9006 136.541 86.571 136.435 86.1733 136.435C85.7727 136.435 85.4403 136.541 85.1761 136.754C84.9148 136.967 84.7202 137.25 84.5923 137.602C84.4673 137.952 84.4048 138.335 84.4048 138.753C84.4048 139.173 84.4673 139.558 84.5923 139.908C84.7202 140.257 84.9148 140.537 85.1761 140.747C85.4403 140.957 85.7727 141.062 86.1733 141.062ZM92.6672 142.145C92.2524 142.145 91.8774 142.068 91.5422 141.915C91.207 141.759 90.9414 141.533 90.7453 141.237C90.5522 140.942 90.4556 140.58 90.4556 140.151C90.4556 139.781 90.5266 139.477 90.6686 139.239C90.8107 139 91.0024 138.811 91.2439 138.672C91.4854 138.533 91.7553 138.428 92.0536 138.357C92.3519 138.286 92.6559 138.232 92.9655 138.195C93.3576 138.149 93.6757 138.112 93.9201 138.084C94.1644 138.053 94.3419 138.003 94.4527 137.935C94.5635 137.866 94.6189 137.756 94.6189 137.602V137.572C94.6189 137.2 94.5138 136.912 94.3036 136.707C94.0962 136.503 93.7865 136.401 93.3746 136.401C92.9456 136.401 92.6076 136.496 92.3604 136.686C92.1161 136.874 91.9471 137.082 91.8533 137.312L90.6559 137.04C90.7979 136.642 91.0053 136.321 91.278 136.077C91.5536 135.83 91.8703 135.651 92.2283 135.54C92.5863 135.426 92.9627 135.369 93.3576 135.369C93.6189 135.369 93.8959 135.401 94.1885 135.463C94.484 135.523 94.7596 135.634 95.0152 135.795C95.2738 135.957 95.4854 136.189 95.6502 136.49C95.8149 136.788 95.8973 137.176 95.8973 137.653V142H94.653V141.105H94.6019C94.5195 141.27 94.3959 141.432 94.2311 141.591C94.0664 141.75 93.8547 141.882 93.5962 141.987C93.3377 142.092 93.028 142.145 92.6672 142.145ZM92.9442 141.122C93.2965 141.122 93.5976 141.053 93.8476 140.913C94.1005 140.774 94.2922 140.592 94.4229 140.368C94.5564 140.141 94.6232 139.898 94.6232 139.639V138.795C94.5777 138.841 94.4897 138.884 94.359 138.923C94.2311 138.96 94.0848 138.993 93.9201 139.021C93.7553 139.047 93.5948 139.071 93.4385 139.094C93.2823 139.114 93.1516 139.131 93.0465 139.145C92.7993 139.176 92.5735 139.229 92.3689 139.303C92.1672 139.376 92.0053 139.483 91.8831 139.622C91.7638 139.759 91.7042 139.94 91.7042 140.168C91.7042 140.483 91.8206 140.722 92.0536 140.884C92.2865 141.043 92.5834 141.122 92.9442 141.122ZM100.165 142.128C99.6363 142.128 99.1647 141.993 98.7499 141.723C98.338 141.45 98.0141 141.062 97.7783 140.56C97.5454 140.054 97.4289 139.447 97.4289 138.74C97.4289 138.033 97.5468 137.428 97.7826 136.925C98.0212 136.422 98.3479 136.037 98.7627 135.77C99.1775 135.503 99.6477 135.369 100.173 135.369C100.579 135.369 100.906 135.438 101.153 135.574C101.403 135.707 101.597 135.864 101.733 136.043C101.872 136.222 101.98 136.379 102.057 136.516H102.133V133.273H103.408V142H102.163V140.982H102.057C101.98 141.121 101.869 141.28 101.724 141.459C101.582 141.638 101.386 141.794 101.136 141.928C100.886 142.061 100.562 142.128 100.165 142.128ZM100.446 141.041C100.812 141.041 101.122 140.945 101.375 140.751C101.631 140.555 101.824 140.284 101.954 139.938C102.088 139.591 102.155 139.187 102.155 138.727C102.155 138.273 102.089 137.875 101.959 137.534C101.828 137.193 101.636 136.928 101.383 136.737C101.131 136.547 100.818 136.452 100.446 136.452C100.062 136.452 99.7428 136.551 99.4871 136.75C99.2315 136.949 99.0383 137.22 98.9076 137.564C98.7798 137.908 98.7158 138.295 98.7158 138.727C98.7158 139.165 98.7812 139.558 98.9119 139.908C99.0425 140.257 99.2357 140.534 99.4914 140.739C99.7499 140.94 100.068 141.041 100.446 141.041ZM109.447 144.455C109.257 144.455 109.084 144.439 108.927 144.408C108.771 144.379 108.655 144.348 108.578 144.314L108.885 143.27C109.118 143.332 109.325 143.359 109.507 143.351C109.689 143.342 109.849 143.274 109.989 143.146C110.131 143.018 110.256 142.81 110.364 142.52L110.521 142.085L108.126 135.455H109.49L111.148 140.534H111.216L112.873 135.455H114.241L111.544 142.874C111.419 143.214 111.26 143.503 111.067 143.739C110.873 143.977 110.643 144.156 110.376 144.276C110.109 144.395 109.8 144.455 109.447 144.455ZM118.093 142.132C117.48 142.132 116.944 141.991 116.487 141.71C116.029 141.429 115.674 141.036 115.421 140.53C115.169 140.024 115.042 139.433 115.042 138.757C115.042 138.078 115.169 137.484 115.421 136.976C115.674 136.467 116.029 136.072 116.487 135.791C116.944 135.51 117.48 135.369 118.093 135.369C118.707 135.369 119.242 135.51 119.7 135.791C120.157 136.072 120.512 136.467 120.765 136.976C121.018 137.484 121.144 138.078 121.144 138.757C121.144 139.433 121.018 140.024 120.765 140.53C120.512 141.036 120.157 141.429 119.7 141.71C119.242 141.991 118.707 142.132 118.093 142.132ZM118.098 141.062C118.495 141.062 118.825 140.957 119.086 140.747C119.348 140.537 119.541 140.257 119.666 139.908C119.794 139.558 119.857 139.173 119.857 138.753C119.857 138.335 119.794 137.952 119.666 137.602C119.541 137.25 119.348 136.967 119.086 136.754C118.825 136.541 118.495 136.435 118.098 136.435C117.697 136.435 117.365 136.541 117.1 136.754C116.839 136.967 116.644 137.25 116.517 137.602C116.392 137.952 116.329 138.335 116.329 138.753C116.329 139.173 116.392 139.558 116.517 139.908C116.644 140.257 116.839 140.537 117.1 140.747C117.365 140.957 117.697 141.062 118.098 141.062ZM126.833 139.286V135.455H128.111V142H126.858V140.866H126.79C126.64 141.216 126.398 141.507 126.066 141.74C125.736 141.97 125.326 142.085 124.834 142.085C124.414 142.085 124.042 141.993 123.718 141.808C123.397 141.621 123.144 141.344 122.959 140.977C122.778 140.611 122.687 140.158 122.687 139.618V135.455H123.961V139.464C123.961 139.911 124.084 140.266 124.331 140.53C124.579 140.794 124.9 140.926 125.295 140.926C125.533 140.926 125.77 140.866 126.006 140.747C126.245 140.628 126.442 140.447 126.599 140.206C126.758 139.964 126.836 139.658 126.833 139.286ZM129.943 142V135.455H131.175V136.494H131.243C131.362 136.142 131.573 135.865 131.874 135.663C132.178 135.459 132.521 135.357 132.905 135.357C132.985 135.357 133.078 135.359 133.186 135.365C133.297 135.371 133.384 135.378 133.446 135.386V136.605C133.395 136.591 133.304 136.575 133.173 136.558C133.043 136.538 132.912 136.528 132.781 136.528C132.48 136.528 132.212 136.592 131.976 136.72C131.743 136.845 131.558 137.02 131.422 137.244C131.286 137.466 131.217 137.719 131.217 138.003V142H129.943ZM137.965 144.455V135.455H139.209V136.516H139.315C139.389 136.379 139.496 136.222 139.635 136.043C139.774 135.864 139.967 135.707 140.215 135.574C140.462 135.438 140.788 135.369 141.195 135.369C141.723 135.369 142.195 135.503 142.609 135.77C143.024 136.037 143.35 136.422 143.585 136.925C143.824 137.428 143.943 138.033 143.943 138.74C143.943 139.447 143.825 140.054 143.59 140.56C143.354 141.062 143.03 141.45 142.618 141.723C142.206 141.993 141.736 142.128 141.207 142.128C140.81 142.128 140.484 142.061 140.232 141.928C139.982 141.794 139.786 141.638 139.644 141.459C139.502 141.28 139.392 141.121 139.315 140.982H139.239V144.455H137.965ZM139.213 138.727C139.213 139.187 139.28 139.591 139.413 139.938C139.547 140.284 139.74 140.555 139.993 140.751C140.246 140.945 140.555 141.041 140.922 141.041C141.303 141.041 141.621 140.94 141.877 140.739C142.132 140.534 142.325 140.257 142.456 139.908C142.59 139.558 142.656 139.165 142.656 138.727C142.656 138.295 142.591 137.908 142.46 137.564C142.332 137.22 142.139 136.949 141.881 136.75C141.625 136.551 141.305 136.452 140.922 136.452C140.553 136.452 140.24 136.547 139.984 136.737C139.732 136.928 139.54 137.193 139.409 137.534C139.279 137.875 139.213 138.273 139.213 138.727ZM145.491 142V135.455H146.765V142H145.491ZM146.134 134.445C145.913 134.445 145.722 134.371 145.563 134.223C145.407 134.072 145.329 133.893 145.329 133.686C145.329 133.476 145.407 133.297 145.563 133.149C145.722 132.999 145.913 132.923 146.134 132.923C146.356 132.923 146.545 132.999 146.701 133.149C146.86 133.297 146.94 133.476 146.94 133.686C146.94 133.893 146.86 134.072 146.701 134.223C146.545 134.371 146.356 134.445 146.134 134.445ZM151.356 142.132C150.723 142.132 150.177 141.989 149.72 141.702C149.265 141.412 148.916 141.013 148.672 140.504C148.427 139.996 148.305 139.413 148.305 138.757C148.305 138.092 148.43 137.506 148.68 136.997C148.93 136.486 149.282 136.087 149.737 135.8C150.191 135.513 150.727 135.369 151.343 135.369C151.841 135.369 152.284 135.462 152.673 135.646C153.062 135.828 153.376 136.084 153.615 136.413C153.856 136.743 154 137.128 154.045 137.568H152.805C152.737 137.261 152.581 136.997 152.336 136.776C152.095 136.554 151.771 136.443 151.365 136.443C151.01 136.443 150.699 136.537 150.431 136.724C150.167 136.909 149.961 137.173 149.814 137.517C149.666 137.858 149.592 138.261 149.592 138.727C149.592 139.205 149.664 139.616 149.809 139.963C149.954 140.31 150.159 140.578 150.423 140.768C150.69 140.959 151.004 141.054 151.365 141.054C151.606 141.054 151.825 141.01 152.021 140.922C152.22 140.831 152.386 140.702 152.52 140.534C152.656 140.366 152.751 140.165 152.805 139.929H154.045C154 140.352 153.862 140.73 153.632 141.062C153.402 141.395 153.093 141.656 152.707 141.847C152.324 142.037 151.873 142.132 151.356 142.132ZM158.583 135.455V136.477H155.008V135.455H158.583ZM155.967 133.886H157.241V140.078C157.241 140.325 157.278 140.511 157.352 140.636C157.425 140.759 157.521 140.842 157.637 140.888C157.756 140.93 157.886 140.952 158.025 140.952C158.127 140.952 158.217 140.945 158.293 140.93C158.37 140.916 158.43 140.905 158.472 140.896L158.702 141.949C158.629 141.977 158.523 142.006 158.387 142.034C158.251 142.065 158.08 142.082 157.876 142.085C157.54 142.091 157.228 142.031 156.938 141.906C156.648 141.781 156.414 141.588 156.235 141.327C156.056 141.065 155.967 140.737 155.967 140.342V133.886ZM164.259 139.286V135.455H165.537V142H164.284V140.866H164.216C164.066 141.216 163.824 141.507 163.492 141.74C163.162 141.97 162.752 142.085 162.26 142.085C161.84 142.085 161.468 141.993 161.144 141.808C160.823 141.621 160.57 141.344 160.385 140.977C160.203 140.611 160.113 140.158 160.113 139.618V135.455H161.387V139.464C161.387 139.911 161.51 140.266 161.757 140.53C162.005 140.794 162.326 140.926 162.721 140.926C162.959 140.926 163.196 140.866 163.432 140.747C163.671 140.628 163.868 140.447 164.024 140.206C164.184 139.964 164.262 139.658 164.259 139.286ZM167.369 142V135.455H168.601V136.494H168.669C168.788 136.142 168.999 135.865 169.3 135.663C169.604 135.459 169.947 135.357 170.331 135.357C170.41 135.357 170.504 135.359 170.612 135.365C170.723 135.371 170.81 135.378 170.872 135.386V136.605C170.821 136.591 170.73 136.575 170.599 136.558C170.469 136.538 170.338 136.528 170.207 136.528C169.906 136.528 169.638 136.592 169.402 136.72C169.169 136.845 168.984 137.02 168.848 137.244C168.712 137.466 168.643 137.719 168.643 138.003V142H167.369ZM174.681 142.132C174.037 142.132 173.481 141.994 173.015 141.719C172.552 141.44 172.194 141.05 171.941 140.547C171.691 140.041 171.566 139.449 171.566 138.77C171.566 138.099 171.691 137.509 171.941 136.997C172.194 136.486 172.546 136.087 172.998 135.8C173.453 135.513 173.984 135.369 174.592 135.369C174.961 135.369 175.319 135.43 175.666 135.553C176.012 135.675 176.323 135.866 176.599 136.128C176.875 136.389 177.092 136.729 177.251 137.146C177.41 137.561 177.49 138.065 177.49 138.659V139.111H172.287V138.156H176.241C176.241 137.821 176.173 137.524 176.037 137.266C175.9 137.004 175.708 136.798 175.461 136.648C175.217 136.497 174.93 136.422 174.6 136.422C174.242 136.422 173.93 136.51 173.663 136.686C173.399 136.859 173.194 137.087 173.049 137.368C172.907 137.646 172.836 137.949 172.836 138.276V139.021C172.836 139.459 172.913 139.831 173.066 140.138C173.223 140.445 173.44 140.679 173.718 140.841C173.997 141 174.322 141.08 174.694 141.08C174.936 141.08 175.156 141.045 175.355 140.977C175.554 140.906 175.725 140.801 175.87 140.662C176.015 140.523 176.126 140.351 176.203 140.146L177.409 140.364C177.312 140.719 177.139 141.03 176.889 141.297C176.642 141.561 176.331 141.767 175.956 141.915C175.583 142.06 175.159 142.132 174.681 142.132Z" fill="#0080FF"/>
</svg>
